<?xml version="1.0" encoding="UTF-8"?>
<svg xmlns="http://www.w3.org/2000/svg" viewBox="0 0 126 43" width="126" height="43" role="img" aria-label="LugiOS">
  <path fill="#f1f5f9" d="M19.55 30.10L4 30.10L4 4.90L8.32 4.90L8.32 26.72L19.55 26.72L19.55 30.10ZM30.35 30.53L30.35 30.53Q28.16 30.53 26.59 29.65Q25.02 28.77 24.20 26.99Q23.37 25.20 23.37 22.58L23.37 22.58L23.37 11.96L27.69 11.96L27.69 22.14Q27.69 24.48 28.68 25.69Q29.67 26.90 31.68 26.90L31.68 26.90Q32.98 26.90 34.01 26.28Q35.03 25.67 35.63 24.50Q36.22 23.33 36.22 21.64L36.22 21.64L36.22 11.96L40.54 11.96L40.54 30.10L36.72 30.10L36.40 27.08Q35.57 28.66 34.01 29.60Q32.44 30.53 30.35 30.53ZM53.00 38.45L53.00 38.45Q50.44 38.45 48.51 37.82Q46.59 37.19 45.53 35.91Q44.46 34.64 44.46 32.73L44.46 32.73Q44.46 31.61 45.02 30.55Q45.58 29.49 46.73 28.55L46.73 28.55Q46.77 28.52 46.84 28.48L46.84 28.48Q46.26 28.23 45.83 27.94L45.83 27.94Q45.11 27.51 44.64 27.04L44.64 27.04L44.64 26.21L47.81 22.90Q47.09 22.25 46.59 21.39L46.59 21.39Q45.72 19.91 45.72 18.11L45.72 18.11Q45.72 16.28 46.59 14.80Q47.45 13.32 49.09 12.42Q50.73 11.52 53.00 11.52L53.00 11.52Q54.58 11.52 55.84 11.96L55.84 11.96L62.61 11.96L62.61 14.69L59.44 14.91Q60.23 16.35 60.23 18.11L60.23 18.11Q60.23 19.91 59.37 21.41Q58.50 22.90 56.88 23.78Q55.26 24.66 53.00 24.66L53.00 24.66Q51.66 24.66 50.55 24.34L50.55 24.34L49.11 25.74Q49.18 25.78 49.25 25.82L49.25 25.82Q49.61 26.03 50.21 26.19Q50.80 26.36 51.77 26.50Q52.74 26.64 54.29 26.79L54.29 26.79Q56.70 26.97 58.22 27.65Q59.73 28.34 60.45 29.49Q61.17 30.64 61.17 32.26L61.17 32.26Q61.17 33.84 60.29 35.25Q59.40 36.65 57.60 37.55Q55.80 38.45 53.00 38.45ZM50.51 29.49L50.51 29.49Q49.58 29.96 49.11 30.53L49.11 30.53Q48.42 31.40 48.42 32.30L48.42 32.30Q48.42 33.23 49.02 33.86Q49.61 34.49 50.64 34.82Q51.66 35.14 52.96 35.14L52.96 35.14Q54.22 35.14 55.16 34.80Q56.09 34.46 56.61 33.84Q57.14 33.23 57.14 32.37L57.14 32.37Q57.14 31.29 56.38 30.62Q55.62 29.96 53.39 29.81L53.39 29.81Q51.77 29.70 50.51 29.49ZM53.00 21.32L53.00 21.32Q54.54 21.32 55.48 20.49Q56.42 19.66 56.42 18.11Q56.42 16.56 55.48 15.75Q54.54 14.94 53.00 14.94Q51.45 14.94 50.48 15.75Q49.50 16.56 49.50 18.11Q49.50 19.66 50.48 20.49Q51.45 21.32 53.00 21.32ZM70.92 30.10L66.60 30.10L66.60 11.96L70.92 11.96L70.92 30.10ZM68.76 9.08L68.76 9.08Q67.58 9.08 66.80 8.34Q66.03 7.60 66.03 6.52L66.03 6.52Q66.03 5.40 66.80 4.70Q67.58 4 68.76 4L68.76 4Q69.95 4 70.73 4.70Q71.50 5.40 71.50 6.52L71.50 6.52Q71.50 7.60 70.73 8.34Q69.95 9.08 68.76 9.08Z"/>
  <path fill="#3b82f6" d="M87.56 30.53L87.56 30.53Q83.92 30.53 81.13 28.89Q78.34 27.26 76.76 24.32Q75.17 21.39 75.17 17.50L75.17 17.50Q75.17 13.65 76.76 10.71Q78.34 7.78 81.13 6.12Q83.92 4.47 87.56 4.47L87.56 4.47Q91.26 4.47 94.07 6.12Q96.88 7.78 98.43 10.71Q99.98 13.65 99.98 17.50L99.98 17.50Q99.98 21.39 98.43 24.32Q96.88 27.26 94.07 28.89Q91.26 30.53 87.56 30.53ZM87.59 26.64L87.59 26.64Q90.00 26.64 91.80 25.55Q93.60 24.45 94.58 22.40Q95.55 20.34 95.55 17.50L95.55 17.50Q95.55 14.66 94.58 12.60Q93.60 10.55 91.80 9.45Q90.00 8.36 87.59 8.36L87.59 8.36Q85.18 8.36 83.38 9.45Q81.58 10.55 80.59 12.60Q79.60 14.66 79.60 17.50L79.60 17.50Q79.60 20.34 80.59 22.40Q81.58 24.45 83.38 25.55Q85.18 26.64 87.59 26.64ZM112.65 30.53L112.65 30.53Q109.91 30.53 107.79 29.56Q105.66 28.59 104.48 26.79Q103.29 24.99 103.25 22.50L103.25 22.50L107.82 22.50Q107.82 23.76 108.42 24.75Q109.01 25.74 110.07 26.32Q111.14 26.90 112.65 26.90L112.65 26.90Q113.94 26.90 114.90 26.48Q115.85 26.07 116.37 25.29Q116.90 24.52 116.90 23.48L116.90 23.48Q116.90 22.29 116.34 21.51Q115.78 20.74 114.81 20.20Q113.84 19.66 112.58 19.25Q111.32 18.83 109.91 18.36L109.91 18.36Q106.92 17.36 105.41 15.79Q103.90 14.22 103.90 11.60L103.90 11.60Q103.90 9.40 104.94 7.82Q105.99 6.23 107.88 5.35Q109.77 4.47 112.25 4.47L112.25 4.47Q114.77 4.47 116.66 5.37Q118.55 6.27 119.65 7.87Q120.75 9.47 120.78 11.70L120.78 11.70L116.18 11.70Q116.14 10.77 115.67 9.96Q115.20 9.15 114.32 8.63Q113.44 8.10 112.18 8.10L112.18 8.10Q111.10 8.07 110.25 8.45Q109.41 8.82 108.92 9.53Q108.44 10.23 108.44 11.27L108.44 11.27Q108.44 12.28 108.89 12.95Q109.34 13.61 110.20 14.06Q111.06 14.51 112.22 14.91Q113.37 15.30 114.74 15.77L114.74 15.77Q116.61 16.38 118.14 17.27Q119.67 18.15 120.57 19.55Q121.47 20.96 121.47 23.19L121.47 23.19Q121.47 25.13 120.46 26.81Q119.45 28.48 117.51 29.51Q115.56 30.53 112.65 30.53Z"/>
</svg>
