<?xml version="1.0" encoding="UTF-8"?>
<svg xmlns="http://www.w3.org/2000/svg" viewBox="0 0 1024 1024" width="1024" height="1024" role="img" aria-label="LugiOS">
  <rect width="1024" height="1024" fill="#0c0f14"/>
  <path fill="#f1f5f9" d="M272.10 561.30L185.70 561.30L185.70 421.30L209.70 421.30L209.70 542.50L272.10 542.50L272.10 561.30ZM332.10 563.70L332.10 563.70Q319.90 563.70 311.20 558.80Q302.50 553.90 297.90 544Q293.30 534.10 293.30 519.50L293.30 519.50L293.30 460.50L317.30 460.50L317.30 517.10Q317.30 530.10 322.80 536.80Q328.30 543.50 339.50 543.50L339.50 543.50Q346.70 543.50 352.40 540.10Q358.10 536.70 361.40 530.20Q364.70 523.70 364.70 514.30L364.70 514.30L364.70 460.50L388.70 460.50L388.70 561.30L367.50 561.30L365.70 544.50Q361.10 553.30 352.40 558.50Q343.70 563.70 332.10 563.70ZM457.90 607.70L457.90 607.70Q443.70 607.70 433 604.20Q422.30 600.70 416.40 593.60Q410.50 586.50 410.50 575.90L410.50 575.90Q410.50 569.70 413.60 563.80Q416.70 557.90 423.10 552.70L423.10 552.70Q423.30 552.50 423.70 552.30L423.70 552.30Q420.50 550.90 418.10 549.30L418.10 549.30Q414.10 546.90 411.50 544.30L411.50 544.30L411.50 539.70L429.10 521.30Q425.10 517.70 422.30 512.90L422.30 512.90Q417.50 504.70 417.50 494.70L417.50 494.70Q417.50 484.50 422.30 476.30Q427.10 468.10 436.20 463.10Q445.30 458.10 457.90 458.10L457.90 458.10Q466.70 458.10 473.70 460.50L473.70 460.50L511.30 460.50L511.30 475.70L493.70 476.90Q498.10 484.90 498.10 494.70L498.10 494.70Q498.10 504.70 493.30 513Q488.50 521.30 479.50 526.20Q470.50 531.10 457.90 531.10L457.90 531.10Q450.50 531.10 444.30 529.30L444.30 529.30L436.30 537.10Q436.70 537.30 437.10 537.50L437.10 537.50Q439.10 538.70 442.40 539.60Q445.70 540.50 451.10 541.30Q456.50 542.10 465.10 542.90L465.10 542.90Q478.50 543.90 486.90 547.70Q495.30 551.50 499.30 557.90Q503.30 564.30 503.30 573.30L503.30 573.30Q503.30 582.10 498.40 589.90Q493.50 597.70 483.50 602.70Q473.50 607.70 457.90 607.70ZM444.10 557.90L444.10 557.90Q438.90 560.50 436.30 563.70L436.30 563.70Q432.50 568.50 432.50 573.50L432.50 573.50Q432.50 578.70 435.80 582.20Q439.10 585.70 444.80 587.50Q450.50 589.30 457.70 589.30L457.70 589.30Q464.70 589.30 469.90 587.40Q475.10 585.50 478 582.10Q480.90 578.70 480.90 573.90L480.90 573.90Q480.90 567.90 476.70 564.20Q472.50 560.50 460.10 559.70L460.10 559.70Q451.10 559.10 444.10 557.90ZM457.90 512.50L457.90 512.50Q466.50 512.50 471.70 507.90Q476.90 503.30 476.90 494.70Q476.90 486.10 471.70 481.60Q466.50 477.10 457.90 477.10Q449.30 477.10 443.90 481.60Q438.50 486.10 438.50 494.70Q438.50 503.30 443.90 507.90Q449.30 512.50 457.90 512.50ZM557.50 561.30L533.50 561.30L533.50 460.50L557.50 460.50L557.50 561.30ZM545.50 444.50L545.50 444.50Q538.90 444.50 534.60 440.40Q530.30 436.30 530.30 430.30L530.30 430.30Q530.30 424.10 534.60 420.20Q538.90 416.30 545.50 416.30L545.50 416.30Q552.10 416.30 556.40 420.20Q560.70 424.10 560.70 430.30L560.70 430.30Q560.70 436.30 556.40 440.40Q552.10 444.50 545.50 444.50Z"/>
  <path fill="#3b82f6" d="M649.90 563.70L649.90 563.70Q629.70 563.70 614.20 554.60Q598.70 545.50 589.90 529.20Q581.10 512.90 581.10 491.30L581.10 491.30Q581.10 469.90 589.90 453.60Q598.70 437.30 614.20 428.10Q629.70 418.90 649.90 418.90L649.90 418.90Q670.50 418.90 686.10 428.10Q701.70 437.30 710.30 453.60Q718.90 469.90 718.90 491.30L718.90 491.30Q718.90 512.90 710.30 529.20Q701.70 545.50 686.10 554.60Q670.50 563.70 649.90 563.70ZM650.10 542.10L650.10 542.10Q663.50 542.10 673.50 536Q683.50 529.90 688.90 518.50Q694.30 507.10 694.30 491.30L694.30 491.30Q694.30 475.50 688.90 464.10Q683.50 452.70 673.50 446.60Q663.50 440.50 650.10 440.50L650.10 440.50Q636.70 440.50 626.70 446.60Q616.70 452.70 611.20 464.10Q605.70 475.50 605.70 491.30L605.70 491.30Q605.70 507.10 611.20 518.50Q616.70 529.90 626.70 536Q636.70 542.10 650.10 542.10ZM789.30 563.70L789.30 563.70Q774.10 563.70 762.30 558.30Q750.50 552.90 743.90 542.90Q737.30 532.90 737.10 519.10L737.10 519.10L762.50 519.10Q762.50 526.10 765.80 531.60Q769.10 537.10 775.00 540.30Q780.90 543.50 789.30 543.50L789.30 543.50Q796.50 543.50 801.80 541.20Q807.10 538.90 810.00 534.60Q812.90 530.30 812.90 524.50L812.90 524.50Q812.90 517.90 809.80 513.60Q806.70 509.30 801.30 506.30Q795.90 503.30 788.90 501.00Q781.90 498.70 774.10 496.10L774.10 496.10Q757.50 490.50 749.10 481.80Q740.70 473.10 740.70 458.50L740.70 458.50Q740.70 446.30 746.50 437.50Q752.30 428.70 762.80 423.80Q773.30 418.90 787.10 418.90L787.10 418.90Q801.10 418.90 811.60 423.90Q822.10 428.90 828.20 437.80Q834.30 446.70 834.50 459.10L834.50 459.10L808.90 459.10Q808.70 453.90 806.10 449.40Q803.50 444.90 798.60 442.00Q793.70 439.10 786.70 439.10L786.70 439.10Q780.70 438.90 776.00 441.00Q771.30 443.10 768.60 447.00Q765.90 450.90 765.90 456.70L765.90 456.70Q765.90 462.30 768.40 466.00Q770.90 469.70 775.70 472.20Q780.50 474.70 786.90 476.90Q793.30 479.10 800.90 481.70L800.90 481.70Q811.30 485.10 819.80 490.00Q828.30 494.90 833.30 502.70Q838.30 510.50 838.30 522.90L838.30 522.90Q838.30 533.70 832.70 543Q827.10 552.30 816.30 558Q805.50 563.70 789.30 563.70Z"/>
</svg>
